<svg width="1920" height="240" viewBox="0 0 1920 240" xmlns="http://www.w3.org/2000/svg"><rect width="1920" height="240" fill="#423050"/><path d="M 0,240 C 0,240 0,60 0,60 C 27.43363703079296,61.83434892487092 54.86727406158592,63.668697849741854 80,57 C 105.13272593841408,50.331302150258146 127.9645407844493,35.159557525903516 157,42 C 186.0354592155507,48.840442474096484 221.27456280061682,77.69307204664408 246,76 C 270.7254371993832,74.30692795335592 284.9372080130834,42.06815428752013 310,37 C 335.0627919869166,31.931845712479866 370.9766051470493,54.03431080327538 399,57 C 427.0233948529507,59.96568919672462 447.1563713987193,43.79460249937837 476,41 C 504.8436286012807,38.20539750062163 542.3979092580735,48.78727919921111 574,58 C 605.6020907419265,67.21272080078889 631.251991568987,75.05628070377718 653,74 C 674.748008431013,72.94371929622282 692.5941244659784,62.98759798568021 715,60 C 737.4058755340216,57.01240201431979 764.371510567099,60.993327353501975 793,61 C 821.628489432901,61.006672646498025 851.9198332656254,57.039092600311896 880,59 C 908.0801667343746,60.960907399688104 933.9491563703998,68.85030224525043 963,74 C 992.0508436296002,79.14969775474957 1024.2835412527752,81.55969841868638 1054,76 C 1083.7164587472248,70.44030158131362 1110.9166786184994,56.91090408000407 1132,54 C 1153.0833213815006,51.08909591999593 1168.049744273227,58.79668526129732 1196,60 C 1223.950255726773,61.20331473870268 1264.8843442885923,55.9023548748066 1288,56 C 1311.1156557114077,56.0976451251934 1316.4128785724033,61.59389523947627 1345,67 C 1373.5871214275967,72.40610476052373 1425.4641414217936,77.72206416728828 1454,76 C 1482.5358585782064,74.27793583271172 1487.7305557404225,65.51784809137057 1511,60 C 1534.2694442595775,54.48215190862943 1575.6136356165166,52.20654346722944 1608,53 C 1640.3863643834834,53.79345653277056 1663.814901793511,57.6559780397117 1685,62 C 1706.185098206489,66.3440219602883 1725.1267572094393,71.16954437392377 1751,73 C 1776.8732427905607,74.83045562607623 1809.6780693687315,73.6658444645932 1839,71 C 1868.3219306312685,68.3341555354068 1894.1609653156343,64.1670777677034 1920,60 C 1920,60 1920,240 1920,240 Z" fill="#161d26" opacity="0.15"/><path d="M 0,240 C 0,240 0,120 0,120 C 22.276307639877686,122.8825514993735 44.55261527975537,125.765102998747 69,124 C 93.44738472024463,122.234897001253 120.06584652085618,115.82213950438552 148,111 C 175.93415347914382,106.17786049561448 205.18399863681992,102.94633898371089 236,104 C 266.8160013631801,105.05366101628911 299.19815893186416,110.39250456077094 324,118 C 348.80184106813584,125.60749543922906 366.0233656357234,135.48364277320533 393,142 C 419.9766343642766,148.51635722679467 456.7083785252422,151.67292434640777 482,141 C 507.2916214747578,130.32707565359223 521.1431202633074,105.82465984116358 550,102 C 578.8568797366926,98.17534015883642 622.7191404215282,115.02843628893787 653,120 C 683.2808595784718,124.97156371106213 699.9803180505796,118.06159500308492 718,112 C 736.0196819494204,105.93840499691508 755.3595873761532,100.72518369872249 787,100 C 818.6404126238468,99.27481630127751 862.5813324448075,103.03767020202515 891,112 C 919.4186675551925,120.96232979797485 932.3150828446167,135.12413549317694 953,134 C 973.6849171553833,132.87586450682306 1002.1583361767262,116.46578782526709 1033,109 C 1063.8416638232738,101.53421217473291 1097.0515724484783,103.01271320575472 1124,113 C 1150.9484275515217,122.98728679424528 1171.635374029361,141.483359351714 1194,139 C 1216.364625970639,136.516640648286 1240.4069314340775,113.05384938738926 1271,112 C 1301.5930685659225,110.94615061261074 1338.7369002343296,132.30124309872897 1370,132 C 1401.2630997656704,131.69875690127103 1426.645467628604,109.74117821769478 1449,101 C 1471.354532371396,92.25882178230522 1490.681229251255,96.73404403049186 1519,106 C 1547.318770748745,115.26595596950814 1584.6296153663764,129.32264566033783 1609,127 C 1633.3703846336236,124.67735433966217 1644.8003092832391,105.97537332815686 1670,107 C 1695.1996907167609,108.02462667184314 1734.1691475006664,128.77586102703467 1766,131 C 1797.8308524993336,133.22413897296533 1822.523100714095,116.92118256370438 1847,112 C 1871.476899285905,107.07881743629562 1895.7384496429524,113.53940871814781 1920,120 C 1920,120 1920,240 1920,240 Z" fill="#161d26" opacity="0.3"/><path d="M 0,240 C 0,240 0,180 0,180 C 24.07698277086191,171.4308627493751 48.15396554172382,162.86172549875022 77,162 C 105.84603445827618,161.13827450124978 139.46112060396658,167.9839607543742 164,168 C 188.53887939603342,168.0160392456258 204.00155204240986,161.20243148375283 232,158 C 259.99844795759014,154.79756851624717 300.5326712263939,155.20631331061435 332,167 C 363.4673287736061,178.79368668938565 385.8677630520145,201.97231527378983 410,200 C 434.1322369479855,198.02768472621017 459.9962765655482,170.90442559422638 489,168 C 518.0037234344518,165.09557440577362 550.1471306857926,186.4099823493045 573,186 C 595.8528693142074,185.5900176506955 609.4152006912814,163.45564500855562 630,166 C 650.5847993087186,168.54435499144438 678.1920665490818,195.76743761647293 711,199 C 743.8079334509182,202.23256238352707 781.8165331123913,181.4746045255526 809,175 C 836.1834668876087,168.5253954744474 852.5418010013534,176.3341442813166 879,179 C 905.4581989986466,181.6658557186834 942.0162628821954,179.18881834918102 970,176 C 997.9837371178046,172.81118165081898 1017.3931474698647,168.91058232195925 1037,168 C 1056.6068525301353,167.08941767804075 1076.411147238346,169.168852362982 1105,169 C 1133.588852761654,168.831147637018 1170.9622635767507,166.4140082261128 1204,173 C 1237.0377364232493,179.5859917738872 1265.7397984546503,195.17511473256678 1294,195 C 1322.2602015453497,194.82488526743322 1350.0785426046475,178.88553284362007 1371,176 C 1391.9214573953525,173.11446715637993 1405.9460311267594,183.28275389295302 1427,189 C 1448.0539688732406,194.71724610704698 1476.1373328883146,195.98345158456772 1507,192 C 1537.8626671116854,188.01654841543228 1571.504637319982,178.78343976877605 1597,180 C 1622.495362680018,181.21656023122395 1639.8441178317576,192.8827893403281 1668,197 C 1696.1558821682424,201.1172106596719 1735.1188913529882,197.68540286991166 1763,191 C 1790.8811086470118,184.31459713008834 1807.6803167562891,174.37559918002523 1832,172 C 1856.3196832437109,169.62440081997477 1888.1598416218553,174.81220040998738 1920,180 C 1920,180 1920,240 1920,240 Z" fill="#161d26" opacity="0.44999999999999996"/></svg>