<svg width="1920" height="240" viewBox="0 0 1920 240" xmlns="http://www.w3.org/2000/svg"><rect width="1920" height="240" fill="#cdbddb"/><path d="M 0,240 C 0,240 0,60 0,60 C 28.945540881765965,49.57431721827532 57.89108176353193,39.14863443655064 82,46 C 106.10891823646807,52.85136556344936 125.38121382763828,76.97977947207278 155,77 C 184.61878617236172,77.02022052792722 224.58406292591502,52.932247675158216 254,52 C 283.415937074085,51.067752324841784 302.2825344687017,73.29122982729436 327,80 C 351.7174655312983,86.70877017270564 382.28579919927824,77.9028330156643 408,69 C 433.71420080072176,60.0971669843357 454.57426873418524,51.09743811004845 475,49 C 495.42573126581476,46.90256188995155 515.4171258639808,51.7074145441419 547,50 C 578.5828741360192,48.2925854558581 621.7572278098914,40.07290371338393 652,38 C 682.2427721901086,35.92709628661607 699.5539628964535,40.000970602322354 724,41 C 748.4460371035465,41.999029397677646 780.0269206042946,39.92321387732663 804,49 C 827.9730793957054,58.07678612267337 844.3383546863686,78.30617388837109 867,80 C 889.6616453136314,81.69382611162891 918.6196606502307,64.85209056918902 950,57 C 981.3803393497693,49.147909430810984 1015.1830027127089,50.28546383487286 1041,53 C 1066.816997287291,55.71453616512714 1084.648328498934,60.00605409131957 1113,57 C 1141.351671501066,53.99394590868043 1180.2236832915553,43.69031979984887 1212,38 C 1243.7763167084447,32.30968020015113 1268.4569383348446,31.232666709284942 1288,43 C 1307.5430616651554,54.76733329071506 1321.9485633690658,79.37901336301138 1347,81 C 1372.0514366309342,82.62098663698862 1407.7488081888919,61.2512798386695 1438,49 C 1468.2511918111081,36.7487201613305 1493.0562038753674,33.61586728231062 1517,42 C 1540.9437961246326,50.38413271768938 1564.0263763096393,70.28525103208803 1588,69 C 1611.9736236903607,67.71474896791197 1636.838290886076,45.243128589337225 1668,45 C 1699.161709113924,44.756871410662775 1736.6204601460563,66.74223461056305 1769,67 C 1801.3795398539437,67.25776538943695 1828.679868529698,45.78793296841055 1853,41 C 1877.320131470302,36.21206703158945 1898.660065735151,48.10603351579472 1920,60 C 1920,60 1920,240 1920,240 Z" fill="#f0f3f4" opacity="0.15"/><path d="M 0,240 C 0,240 0,120 0,120 C 31.535819203485417,127.73256105785543 63.071638406970834,135.46512211571087 85,130 C 106.92836159302917,124.53487788428913 119.24926557560207,105.87207259501197 146,99 C 172.75073442439793,92.12792740498803 213.9312992906208,97.04658750424132 245,110 C 276.0687007093792,122.95341249575868 297.0255372619148,143.94157738802272 320,141 C 342.9744627380852,138.05842261197728 367.9665516617202,111.1871029436678 394,101 C 420.0334483382798,90.8128970563322 447.1082560912047,97.31001083730604 478,107 C 508.8917439087953,116.68998916269396 543.600423973461,129.57285370710804 569,136 C 594.399576026539,142.42714629289196 610.4900480149512,142.3985743342619 632,139 C 653.5099519850488,135.6014256657381 680.4393839667347,128.83284895584438 712,129 C 743.5606160332653,129.16715104415562 779.7524161181105,136.2700298423606 805,134 C 830.2475838818895,131.7299701576394 844.5509515608235,120.08703167471323 867,118 C 889.4490484391765,115.91296832528677 920.0437776385962,123.38184345878648 952,126 C 983.9562223614038,128.61815654121352 1017.2739378847916,126.3855944901409 1047,125 C 1076.7260621152084,123.6144055098591 1102.8604708222374,123.0757785806499 1130,125 C 1157.1395291777626,126.9242214193501 1185.2841788262583,131.31129118725949 1212,134 C 1238.7158211737417,136.68870881274051 1264.0028138727293,137.6790566703121 1290,137 C 1315.9971861272707,136.3209433296879 1342.7045656828238,133.97248213149206 1368,125 C 1393.2954343171762,116.02751786850794 1417.1789233959748,100.43101480371962 1443,104 C 1468.8210766040252,107.56898519628038 1496.5797407332768,130.30345865362952 1521,138 C 1545.4202592667232,145.69654134637048 1566.5021136709177,138.35515058176225 1591,133 C 1615.4978863290823,127.64484941823775 1643.411804583053,124.27593901932146 1671,120 C 1698.588195416947,115.72406098067854 1725.8506679968702,110.5410933409519 1751,112 C 1776.1493320031298,113.4589066590481 1799.1855234294655,121.55968761687089 1827,124 C 1854.8144765705345,126.44031238312911 1887.4072382852673,123.22015619156456 1920,120 C 1920,120 1920,240 1920,240 Z" fill="#f0f3f4" opacity="0.3"/><path d="M 0,240 C 0,240 0,180 0,180 C 23.80959748544732,171.9405475472903 47.61919497089464,163.88109509458062 77,170 C 106.38080502910536,176.11890490541938 141.33281760186875,196.41616716896786 172,200 C 202.66718239813125,203.58383283103214 229.04953462163036,190.45423622954786 254,181 C 278.95046537836964,171.54576377045214 302.46904391160984,165.7668879128406 327,164 C 351.53095608839016,162.2331120871594 377.0742897319303,164.47821211908982 403,173 C 428.9257102680697,181.52178788091018 455.2337971606688,196.32026361080005 485,194 C 514.7662028393312,191.67973638919995 547.9905216253945,172.24073343770988 572,163 C 596.0094783746055,153.75926656229012 610.8041163377534,154.7168026383605 632,157 C 653.1958836622466,159.2831973616395 680.7930130235918,162.8920560088482 708,172 C 735.2069869764082,181.1079439911518 762.0238315678793,195.7149733262467 795,195 C 827.9761684321207,194.2850266737533 867.1116607048909,178.24805068616496 892,173 C 916.8883392951091,167.75194931383504 927.5295256125568,173.29282392909337 950,171 C 972.4704743874432,168.70717607090663 1006.770236844882,158.5806535974616 1037,162 C 1067.229763155118,165.4193464025384 1093.3895270079147,182.38456168106032 1117,186 C 1140.6104729920853,189.61543831893968 1161.6716551234597,179.88109967829712 1189,174 C 1216.3283448765403,168.11890032170288 1249.9238524982463,166.09103960575115 1277,168 C 1304.0761475017537,169.90896039424885 1324.6329348835543,175.75474189869814 1355,173 C 1385.3670651164457,170.24525810130186 1425.5444079675362,158.88999279945634 1454,165 C 1482.4555920324638,171.11000720054366 1499.1894332463003,194.68528690347654 1521,196 C 1542.8105667536997,197.31471309652346 1569.697859047262,176.36885958663748 1602,168 C 1634.302140952738,159.63114041336252 1672.0191305646515,163.83927474997347 1694,173 C 1715.9808694353485,182.16072525002653 1722.225618694132,196.27404141346867 1748,192 C 1773.774381305868,187.72595858653133 1819.0783946588194,165.0645595961518 1851,160 C 1882.9216053411806,154.9354404038482 1901.4608026705903,167.4677202019241 1920,180 C 1920,180 1920,240 1920,240 Z" fill="#f0f3f4" opacity="0.44999999999999996"/></svg>